<mxfile host="app.diagrams.net" modified="2020-11-11T11:55:40.902Z" agent="5.0 (Windows NT 10.0; Win64; x64) AppleWebKit/537.36 (KHTML, like Gecko) Chrome/86.0.4240.193 Safari/537.36" etag="kTkKsdlMtjrj8dBke-YR" version="13.9.6" type="github">
  <diagram name="Page-1" id="97916047-d0de-89f5-080d-49f4d83e522f">
    <mxGraphModel dx="1443" dy="1057" grid="1" gridSize="10" guides="1" tooltips="1" connect="1" arrows="1" fold="1" page="1" pageScale="1.5" pageWidth="1169" pageHeight="827" background="#ffffff" math="0" shadow="0">
      <root>
        <mxCell id="0" />
        <mxCell id="1" parent="0" />
        <mxCell id="XM8DpRQw1UEtYPJzfMpX-67" style="edgeStyle=orthogonalEdgeStyle;rounded=0;orthogonalLoop=1;jettySize=auto;html=1;entryX=0.5;entryY=0;entryDx=0;entryDy=0;" edge="1" parent="1" source="XM8DpRQw1UEtYPJzfMpX-55" target="XM8DpRQw1UEtYPJzfMpX-60">
          <mxGeometry relative="1" as="geometry">
            <Array as="points">
              <mxPoint x="754" y="290" />
              <mxPoint x="617" y="290" />
            </Array>
          </mxGeometry>
        </mxCell>
        <mxCell id="XM8DpRQw1UEtYPJzfMpX-69" style="edgeStyle=orthogonalEdgeStyle;rounded=0;orthogonalLoop=1;jettySize=auto;html=1;" edge="1" parent="1" source="XM8DpRQw1UEtYPJzfMpX-55" target="XM8DpRQw1UEtYPJzfMpX-62">
          <mxGeometry relative="1" as="geometry">
            <Array as="points">
              <mxPoint x="754" y="290" />
              <mxPoint x="965" y="290" />
            </Array>
          </mxGeometry>
        </mxCell>
        <mxCell id="XM8DpRQw1UEtYPJzfMpX-70" style="edgeStyle=orthogonalEdgeStyle;rounded=0;orthogonalLoop=1;jettySize=auto;html=1;" edge="1" parent="1" source="XM8DpRQw1UEtYPJzfMpX-55" target="XM8DpRQw1UEtYPJzfMpX-63">
          <mxGeometry relative="1" as="geometry">
            <Array as="points">
              <mxPoint x="754" y="290" />
              <mxPoint x="1145" y="290" />
            </Array>
          </mxGeometry>
        </mxCell>
        <mxCell id="XM8DpRQw1UEtYPJzfMpX-71" style="edgeStyle=orthogonalEdgeStyle;rounded=0;orthogonalLoop=1;jettySize=auto;html=1;" edge="1" parent="1" source="XM8DpRQw1UEtYPJzfMpX-55" target="XM8DpRQw1UEtYPJzfMpX-64">
          <mxGeometry relative="1" as="geometry">
            <Array as="points">
              <mxPoint x="754" y="290" />
              <mxPoint x="1325" y="290" />
            </Array>
          </mxGeometry>
        </mxCell>
        <mxCell id="XM8DpRQw1UEtYPJzfMpX-72" style="edgeStyle=orthogonalEdgeStyle;rounded=0;orthogonalLoop=1;jettySize=auto;html=1;" edge="1" parent="1" source="XM8DpRQw1UEtYPJzfMpX-55" target="XM8DpRQw1UEtYPJzfMpX-59">
          <mxGeometry relative="1" as="geometry">
            <Array as="points">
              <mxPoint x="754" y="290" />
              <mxPoint x="435" y="290" />
            </Array>
          </mxGeometry>
        </mxCell>
        <mxCell id="XM8DpRQw1UEtYPJzfMpX-73" style="edgeStyle=orthogonalEdgeStyle;rounded=0;orthogonalLoop=1;jettySize=auto;html=1;" edge="1" parent="1" source="XM8DpRQw1UEtYPJzfMpX-55" target="XM8DpRQw1UEtYPJzfMpX-58">
          <mxGeometry relative="1" as="geometry">
            <Array as="points">
              <mxPoint x="754" y="290" />
              <mxPoint x="255" y="290" />
            </Array>
          </mxGeometry>
        </mxCell>
        <mxCell id="XM8DpRQw1UEtYPJzfMpX-74" style="edgeStyle=orthogonalEdgeStyle;rounded=0;orthogonalLoop=1;jettySize=auto;html=1;entryX=0.25;entryY=0;entryDx=0;entryDy=0;" edge="1" parent="1" source="XM8DpRQw1UEtYPJzfMpX-55" target="XM8DpRQw1UEtYPJzfMpX-61">
          <mxGeometry relative="1" as="geometry">
            <Array as="points">
              <mxPoint x="753" y="280" />
              <mxPoint x="753" y="280" />
            </Array>
          </mxGeometry>
        </mxCell>
        <mxCell id="XM8DpRQw1UEtYPJzfMpX-55" value="" style="shape=image;verticalLabelPosition=bottom;labelBackgroundColor=#ffffff;verticalAlign=top;aspect=fixed;imageAspect=0;image=https://taiori.com/images/logo_taiori.png;" vertex="1" parent="1">
          <mxGeometry x="584" y="161" width="316" height="79" as="geometry" />
        </mxCell>
        <mxCell id="XM8DpRQw1UEtYPJzfMpX-58" value="" style="shape=image;verticalLabelPosition=bottom;labelBackgroundColor=#ffffff;verticalAlign=top;aspect=fixed;imageAspect=0;image=https://taiori.com/images/menu_news_off.png;" vertex="1" parent="1">
          <mxGeometry x="190" y="380" width="130" height="55" as="geometry" />
        </mxCell>
        <mxCell id="XM8DpRQw1UEtYPJzfMpX-59" value="" style="shape=image;verticalLabelPosition=bottom;labelBackgroundColor=#ffffff;verticalAlign=top;aspect=fixed;imageAspect=0;image=https://taiori.com/images/menu_event_off.png;" vertex="1" parent="1">
          <mxGeometry x="370" y="380" width="130" height="55" as="geometry" />
        </mxCell>
        <mxCell id="XM8DpRQw1UEtYPJzfMpX-60" value="" style="shape=image;verticalLabelPosition=bottom;labelBackgroundColor=#ffffff;verticalAlign=top;aspect=fixed;imageAspect=0;image=https://taiori.com/images/menu_room_off.png;" vertex="1" parent="1">
          <mxGeometry x="552" y="380" width="130" height="55" as="geometry" />
        </mxCell>
        <mxCell id="XM8DpRQw1UEtYPJzfMpX-61" value="" style="shape=image;verticalLabelPosition=bottom;labelBackgroundColor=#ffffff;verticalAlign=top;aspect=fixed;imageAspect=0;image=https://taiori.com/images/menu_guide_off.png;" vertex="1" parent="1">
          <mxGeometry x="720" y="380" width="130" height="55" as="geometry" />
        </mxCell>
        <mxCell id="XM8DpRQw1UEtYPJzfMpX-62" value="" style="shape=image;verticalLabelPosition=bottom;labelBackgroundColor=#ffffff;verticalAlign=top;aspect=fixed;imageAspect=0;image=https://taiori.com/images/menu_cuisine_off.png;" vertex="1" parent="1">
          <mxGeometry x="900" y="380" width="130" height="55" as="geometry" />
        </mxCell>
        <mxCell id="XM8DpRQw1UEtYPJzfMpX-63" value="" style="shape=image;verticalLabelPosition=bottom;labelBackgroundColor=#ffffff;verticalAlign=top;aspect=fixed;imageAspect=0;image=https://taiori.com/images/menu_traffic_off.png;" vertex="1" parent="1">
          <mxGeometry x="1080" y="380" width="130" height="55" as="geometry" />
        </mxCell>
        <mxCell id="XM8DpRQw1UEtYPJzfMpX-64" value="" style="shape=image;verticalLabelPosition=bottom;labelBackgroundColor=#ffffff;verticalAlign=top;aspect=fixed;imageAspect=0;image=https://taiori.com/images/menu_tour_off.png;" vertex="1" parent="1">
          <mxGeometry x="1260" y="380" width="130" height="55" as="geometry" />
        </mxCell>
      </root>
    </mxGraphModel>
  </diagram>
</mxfile>
